<svg xmlns="http://www.w3.org/2000/svg" viewBox="0 0 512 512" fill="none" role="img" aria-label="EBDev">
  <defs>
    <linearGradient id="bg-grad" x1="256" y1="0" x2="256" y2="512" gradientUnits="userSpaceOnUse">
      <stop stop-color="#f2f7fc"/>
      <stop stop-color="#e8f0f8"/>
    </linearGradient>
    <linearGradient id="brand-grad" x1="96" y1="416" x2="416" y2="96" gradientUnits="userSpaceOnUse">
      <stop stop-color="#0c2d4a"/>
      <stop stop-color="#2b6cb0"/>
      <stop stop-color="#5da9e8"/>
    </linearGradient>
    <radialGradient id="glow" cx="256" cy="220" r="180" gradientUnits="userSpaceOnUse">
      <stop stop-color="#2b6cb0" stop-opacity="0.12"/>
      <stop stop-color="#2b6cb0" stop-opacity="0"/>
    </radialGradient>
  </defs>
  <rect width="512" height="512" fill="url(#bg-grad)"/>
  <circle cx="256" cy="230" r="180" fill="url(#glow)"/>
  <!-- chave { -->
  <path d="M118 118c-28 0-44 18-44 46 0 22 11 38 30 42-19 4-30 20-30 42 0 28 16 46 44 46" stroke="url(#brand-grad)" stroke-width="18" stroke-linecap="round"/>
  <!-- chave } -->
  <path d="M394 118c28 0 44 18 44 46 0 22-11 38-30 42 19 4 30 20 30 42 0 28-16 46-44 46" stroke="url(#brand-grad)" stroke-width="18" stroke-linecap="round"/>
  <!-- moldura -->
  <path d="M196 156h120v200H196" stroke="url(#brand-grad)" stroke-width="12" stroke-linecap="round" stroke-linejoin="round"/>
  <circle cx="256" cy="156" r="10" fill="#2b6cb0"/>
  <circle cx="256" cy="356" r="10" fill="#2b6cb0"/>
  <path d="M256 166v180" stroke="#2b6cb0" stroke-width="8" stroke-linecap="round"/>
  <!-- circuito -->
  <path d="M196 196h-28" stroke="#1a4975" stroke-width="8" stroke-linecap="round"/>
  <circle cx="160" cy="196" r="10" fill="#1a4975"/>
  <path d="M196 316h-28" stroke="#1a4975" stroke-width="8" stroke-linecap="round"/>
  <circle cx="160" cy="316" r="10" fill="#1a4975"/>
  <!-- seta -->
  <path d="M316 176l52-36v32h40v52h-28l36 52-52-36" stroke="url(#brand-grad)" stroke-width="10" stroke-linecap="round" stroke-linejoin="round"/>
</svg>
